<mxfile host="app.diagrams.net" modified="2022-12-20T11:39:01.659Z" agent="5.0 (Windows NT 10.0; Win64; x64) AppleWebKit/537.36 (KHTML, like Gecko) Chrome/108.0.0.0 Safari/537.36" version="20.7.4" etag="1GQNovPd75BLaFElE3QD" type="github">
  <diagram id="nQnDYJg8r9I1wjPNNvrP" name="페이지-1">
    <mxGraphModel dx="1434" dy="796" grid="1" gridSize="10" guides="1" tooltips="1" connect="1" arrows="1" fold="1" page="1" pageScale="1" pageWidth="827" pageHeight="1169" math="0" shadow="0">
      <root>
        <mxCell id="0" />
        <mxCell id="1" parent="0" />
        <mxCell id="ra3A3iLn9Urj-2r9d3CS-18" style="edgeStyle=orthogonalEdgeStyle;rounded=0;orthogonalLoop=1;jettySize=auto;html=1;exitX=1;exitY=0.3333333333333333;exitDx=0;exitDy=0;exitPerimeter=0;entryX=0;entryY=0.5;entryDx=0;entryDy=0;endArrow=classic;endFill=1;" edge="1" parent="1" source="ra3A3iLn9Urj-2r9d3CS-1" target="ra3A3iLn9Urj-2r9d3CS-7">
          <mxGeometry relative="1" as="geometry" />
        </mxCell>
        <mxCell id="ra3A3iLn9Urj-2r9d3CS-19" style="edgeStyle=orthogonalEdgeStyle;rounded=0;orthogonalLoop=1;jettySize=auto;html=1;exitX=1;exitY=0.3333333333333333;exitDx=0;exitDy=0;exitPerimeter=0;entryX=0;entryY=0.5;entryDx=0;entryDy=0;endArrow=classic;endFill=1;" edge="1" parent="1" source="ra3A3iLn9Urj-2r9d3CS-1" target="ra3A3iLn9Urj-2r9d3CS-3">
          <mxGeometry relative="1" as="geometry">
            <Array as="points">
              <mxPoint x="210" y="300" />
              <mxPoint x="210" y="280" />
            </Array>
          </mxGeometry>
        </mxCell>
        <mxCell id="ra3A3iLn9Urj-2r9d3CS-20" style="edgeStyle=orthogonalEdgeStyle;rounded=0;orthogonalLoop=1;jettySize=auto;html=1;exitX=1;exitY=0.3333333333333333;exitDx=0;exitDy=0;exitPerimeter=0;entryX=0;entryY=0.5;entryDx=0;entryDy=0;endArrow=classic;endFill=1;" edge="1" parent="1" source="ra3A3iLn9Urj-2r9d3CS-1" target="ra3A3iLn9Urj-2r9d3CS-5">
          <mxGeometry relative="1" as="geometry" />
        </mxCell>
        <mxCell id="ra3A3iLn9Urj-2r9d3CS-21" style="edgeStyle=orthogonalEdgeStyle;rounded=0;orthogonalLoop=1;jettySize=auto;html=1;exitX=1;exitY=0.3333333333333333;exitDx=0;exitDy=0;exitPerimeter=0;entryX=0;entryY=0.5;entryDx=0;entryDy=0;endArrow=classic;endFill=1;" edge="1" parent="1" source="ra3A3iLn9Urj-2r9d3CS-1" target="ra3A3iLn9Urj-2r9d3CS-6">
          <mxGeometry relative="1" as="geometry" />
        </mxCell>
        <mxCell id="ra3A3iLn9Urj-2r9d3CS-1" value="이용자" style="shape=umlActor;verticalLabelPosition=bottom;verticalAlign=top;html=1;" vertex="1" parent="1">
          <mxGeometry x="70" y="280" width="30" height="60" as="geometry" />
        </mxCell>
        <mxCell id="ra3A3iLn9Urj-2r9d3CS-2" value="게시판 서비스" style="shape=umlFrame;whiteSpace=wrap;html=1;width=110;height=40;" vertex="1" parent="1">
          <mxGeometry x="170" y="200" width="820" height="460" as="geometry" />
        </mxCell>
        <mxCell id="ra3A3iLn9Urj-2r9d3CS-3" value="회원가입" style="rounded=1;whiteSpace=wrap;html=1;arcSize=40;fontColor=#000000;fillColor=#ffffc0;strokeColor=#ff0000;" vertex="1" parent="1">
          <mxGeometry x="320" y="260" width="120" height="40" as="geometry" />
        </mxCell>
        <mxCell id="ra3A3iLn9Urj-2r9d3CS-23" style="edgeStyle=orthogonalEdgeStyle;rounded=0;orthogonalLoop=1;jettySize=auto;html=1;exitX=1;exitY=0.5;exitDx=0;exitDy=0;entryX=0.5;entryY=1;entryDx=0;entryDy=0;endArrow=classic;endFill=1;" edge="1" parent="1" source="ra3A3iLn9Urj-2r9d3CS-5" target="ra3A3iLn9Urj-2r9d3CS-7">
          <mxGeometry relative="1" as="geometry">
            <Array as="points">
              <mxPoint x="430" y="320" />
              <mxPoint x="550" y="320" />
            </Array>
          </mxGeometry>
        </mxCell>
        <mxCell id="ra3A3iLn9Urj-2r9d3CS-5" value="게시판 보기" style="rounded=1;whiteSpace=wrap;html=1;arcSize=40;fontColor=#000000;fillColor=#ffffc0;strokeColor=#ff0000;" vertex="1" parent="1">
          <mxGeometry x="310" y="340" width="120" height="40" as="geometry" />
        </mxCell>
        <mxCell id="ra3A3iLn9Urj-2r9d3CS-24" style="edgeStyle=orthogonalEdgeStyle;rounded=0;orthogonalLoop=1;jettySize=auto;html=1;exitX=1;exitY=0.5;exitDx=0;exitDy=0;endArrow=classic;endFill=1;" edge="1" parent="1" source="ra3A3iLn9Urj-2r9d3CS-6">
          <mxGeometry relative="1" as="geometry">
            <mxPoint x="550" y="260" as="targetPoint" />
            <Array as="points">
              <mxPoint x="430" y="330" />
              <mxPoint x="550" y="330" />
            </Array>
          </mxGeometry>
        </mxCell>
        <mxCell id="ra3A3iLn9Urj-2r9d3CS-6" value="게시글 보기" style="rounded=1;whiteSpace=wrap;html=1;arcSize=40;fontColor=#000000;fillColor=#ffffc0;strokeColor=#ff0000;" vertex="1" parent="1">
          <mxGeometry x="310" y="470" width="120" height="40" as="geometry" />
        </mxCell>
        <mxCell id="ra3A3iLn9Urj-2r9d3CS-16" style="edgeStyle=orthogonalEdgeStyle;rounded=0;orthogonalLoop=1;jettySize=auto;html=1;exitX=1;exitY=0.5;exitDx=0;exitDy=0;entryX=0;entryY=0.5;entryDx=0;entryDy=0;endArrow=classic;endFill=1;" edge="1" parent="1" source="ra3A3iLn9Urj-2r9d3CS-7" target="ra3A3iLn9Urj-2r9d3CS-8">
          <mxGeometry relative="1" as="geometry" />
        </mxCell>
        <mxCell id="ra3A3iLn9Urj-2r9d3CS-17" style="edgeStyle=orthogonalEdgeStyle;rounded=0;orthogonalLoop=1;jettySize=auto;html=1;exitX=1;exitY=0.5;exitDx=0;exitDy=0;entryX=0;entryY=0.5;entryDx=0;entryDy=0;endArrow=classic;endFill=1;" edge="1" parent="1" source="ra3A3iLn9Urj-2r9d3CS-7" target="ra3A3iLn9Urj-2r9d3CS-9">
          <mxGeometry relative="1" as="geometry" />
        </mxCell>
        <mxCell id="ra3A3iLn9Urj-2r9d3CS-7" value="회원 로그인" style="rounded=1;whiteSpace=wrap;html=1;arcSize=40;fontColor=#000000;fillColor=#ffffc0;strokeColor=#ff0000;" vertex="1" parent="1">
          <mxGeometry x="490" y="220" width="120" height="40" as="geometry" />
        </mxCell>
        <mxCell id="ra3A3iLn9Urj-2r9d3CS-8" value="인증" style="rounded=1;whiteSpace=wrap;html=1;arcSize=40;fontColor=#000000;fillColor=#ffffc0;strokeColor=#ff0000;" vertex="1" parent="1">
          <mxGeometry x="720" y="220" width="120" height="40" as="geometry" />
        </mxCell>
        <mxCell id="ra3A3iLn9Urj-2r9d3CS-9" value="로그인 실패" style="rounded=1;whiteSpace=wrap;html=1;arcSize=40;fontColor=#000000;fillColor=#ffffc0;strokeColor=#ff0000;" vertex="1" parent="1">
          <mxGeometry x="720" y="320" width="120" height="40" as="geometry" />
        </mxCell>
        <mxCell id="ra3A3iLn9Urj-2r9d3CS-10" value="게시판 정렬" style="rounded=1;whiteSpace=wrap;html=1;arcSize=40;fontColor=#000000;fillColor=#ffffc0;strokeColor=#ff0000;" vertex="1" parent="1">
          <mxGeometry x="490" y="350" width="120" height="40" as="geometry" />
        </mxCell>
        <mxCell id="ra3A3iLn9Urj-2r9d3CS-11" value="게시판 검색" style="rounded=1;whiteSpace=wrap;html=1;arcSize=40;fontColor=#000000;fillColor=#ffffc0;strokeColor=#ff0000;" vertex="1" parent="1">
          <mxGeometry x="490" y="430" width="120" height="40" as="geometry" />
        </mxCell>
        <mxCell id="ra3A3iLn9Urj-2r9d3CS-12" value="게시판 작성,수정,삭제" style="rounded=1;whiteSpace=wrap;html=1;arcSize=40;fontColor=#000000;fillColor=#ffffc0;strokeColor=#ff0000;" vertex="1" parent="1">
          <mxGeometry x="490" y="510" width="120" height="40" as="geometry" />
        </mxCell>
        <mxCell id="ra3A3iLn9Urj-2r9d3CS-13" value="댓글 보기, 쓰기, 수정, 삭제" style="rounded=1;whiteSpace=wrap;html=1;arcSize=40;fontColor=#000000;fillColor=#ffffc0;strokeColor=#ff0000;" vertex="1" parent="1">
          <mxGeometry x="490" y="565" width="120" height="40" as="geometry" />
        </mxCell>
      </root>
    </mxGraphModel>
  </diagram>
</mxfile>
